<mxfile host="app.diagrams.net" modified="2024-04-10T15:04:45.530Z" agent="Mozilla/5.0 (Windows NT 10.0; Win64; x64; rv:124.0) Gecko/20100101 Firefox/124.0" etag="aaOHaINVOZUGR6HmHZLB" version="24.2.3" type="device">
  <diagram name="Page-1" id="qNUR6DpDOCy6S4uhiRNb">
    <mxGraphModel dx="1050" dy="531" grid="1" gridSize="10" guides="1" tooltips="1" connect="1" arrows="1" fold="1" page="1" pageScale="1" pageWidth="850" pageHeight="1100" math="0" shadow="0">
      <root>
        <mxCell id="0" />
        <mxCell id="1" parent="0" />
        <mxCell id="jyMq_5GXga4smwKC42Ej-1" value="" style="rounded=0;whiteSpace=wrap;html=1;" vertex="1" parent="1">
          <mxGeometry x="190" y="50" width="380" height="440" as="geometry" />
        </mxCell>
        <mxCell id="jyMq_5GXga4smwKC42Ej-2" value="" style="rounded=0;whiteSpace=wrap;html=1;gradientColor=#FFFFFF;gradientDirection=north;fillColor=#007FFF;" vertex="1" parent="1">
          <mxGeometry x="210" y="240" width="340" height="240" as="geometry" />
        </mxCell>
        <mxCell id="jyMq_5GXga4smwKC42Ej-8" value="" style="rounded=0;whiteSpace=wrap;html=1;gradientColor=#FFFFFF;fillColor=#FFB366;" vertex="1" parent="1">
          <mxGeometry x="210" y="80" width="340" height="120" as="geometry" />
        </mxCell>
        <mxCell id="jyMq_5GXga4smwKC42Ej-16" style="edgeStyle=orthogonalEdgeStyle;rounded=0;orthogonalLoop=1;jettySize=auto;html=1;exitX=0.75;exitY=0;exitDx=0;exitDy=0;entryX=1;entryY=0.5;entryDx=0;entryDy=0;strokeWidth=2;" edge="1" parent="1" source="jyMq_5GXga4smwKC42Ej-4" target="jyMq_5GXga4smwKC42Ej-6">
          <mxGeometry relative="1" as="geometry" />
        </mxCell>
        <mxCell id="jyMq_5GXga4smwKC42Ej-24" style="edgeStyle=orthogonalEdgeStyle;rounded=0;orthogonalLoop=1;jettySize=auto;html=1;exitX=0.75;exitY=0;exitDx=0;exitDy=0;entryX=0.75;entryY=1;entryDx=0;entryDy=0;strokeWidth=2;" edge="1" parent="1" source="jyMq_5GXga4smwKC42Ej-4" target="jyMq_5GXga4smwKC42Ej-23">
          <mxGeometry relative="1" as="geometry" />
        </mxCell>
        <mxCell id="jyMq_5GXga4smwKC42Ej-29" style="edgeStyle=orthogonalEdgeStyle;rounded=0;orthogonalLoop=1;jettySize=auto;html=1;exitX=1;exitY=0;exitDx=0;exitDy=0;entryX=1;entryY=0.5;entryDx=0;entryDy=0;strokeWidth=2;" edge="1" parent="1" source="jyMq_5GXga4smwKC42Ej-4" target="jyMq_5GXga4smwKC42Ej-11">
          <mxGeometry relative="1" as="geometry" />
        </mxCell>
        <mxCell id="jyMq_5GXga4smwKC42Ej-30" style="edgeStyle=orthogonalEdgeStyle;rounded=0;orthogonalLoop=1;jettySize=auto;html=1;exitX=1;exitY=0;exitDx=0;exitDy=0;entryX=1;entryY=0.5;entryDx=0;entryDy=0;strokeWidth=2;" edge="1" parent="1" source="jyMq_5GXga4smwKC42Ej-4" target="jyMq_5GXga4smwKC42Ej-10">
          <mxGeometry relative="1" as="geometry" />
        </mxCell>
        <mxCell id="jyMq_5GXga4smwKC42Ej-4" value="" style="rounded=0;whiteSpace=wrap;html=1;strokeWidth=2;" vertex="1" parent="1">
          <mxGeometry x="235" y="410" width="290" height="60" as="geometry" />
        </mxCell>
        <mxCell id="jyMq_5GXga4smwKC42Ej-5" value="POWER" style="text;html=1;align=center;verticalAlign=middle;whiteSpace=wrap;rounded=0;fontFamily=Times New Roman;fontStyle=7;fontSize=24;" vertex="1" parent="1">
          <mxGeometry x="315" y="425" width="130" height="30" as="geometry" />
        </mxCell>
        <mxCell id="jyMq_5GXga4smwKC42Ej-25" style="edgeStyle=orthogonalEdgeStyle;rounded=0;orthogonalLoop=1;jettySize=auto;html=1;exitX=0.25;exitY=0;exitDx=0;exitDy=0;entryX=0.25;entryY=1;entryDx=0;entryDy=0;strokeWidth=2;" edge="1" parent="1" source="jyMq_5GXga4smwKC42Ej-6" target="jyMq_5GXga4smwKC42Ej-23">
          <mxGeometry relative="1" as="geometry" />
        </mxCell>
        <mxCell id="jyMq_5GXga4smwKC42Ej-6" value="" style="rounded=0;whiteSpace=wrap;html=1;strokeWidth=2;" vertex="1" parent="1">
          <mxGeometry x="240" y="330" width="170" height="60" as="geometry" />
        </mxCell>
        <mxCell id="jyMq_5GXga4smwKC42Ej-10" value="" style="rounded=0;whiteSpace=wrap;html=1;strokeWidth=2;" vertex="1" parent="1">
          <mxGeometry x="240" y="140" width="280" height="40" as="geometry" />
        </mxCell>
        <mxCell id="jyMq_5GXga4smwKC42Ej-9" value="&lt;font style=&quot;font-size: 24px;&quot; face=&quot;Times New Roman&quot;&gt;&lt;b&gt;&lt;i&gt;&lt;u&gt;RECIEVER&lt;/u&gt;&lt;/i&gt;&lt;/b&gt;&lt;/font&gt;" style="text;html=1;align=center;verticalAlign=middle;whiteSpace=wrap;rounded=0;" vertex="1" parent="1">
          <mxGeometry x="285" y="145" width="190" height="30" as="geometry" />
        </mxCell>
        <mxCell id="jyMq_5GXga4smwKC42Ej-11" value="" style="rounded=0;whiteSpace=wrap;html=1;strokeWidth=2;" vertex="1" parent="1">
          <mxGeometry x="240" y="90" width="280" height="30" as="geometry" />
        </mxCell>
        <mxCell id="jyMq_5GXga4smwKC42Ej-12" value="SENSORS" style="text;html=1;align=center;verticalAlign=middle;whiteSpace=wrap;rounded=0;fontFamily=Times New Roman;fontSize=24;fontStyle=7" vertex="1" parent="1">
          <mxGeometry x="260" y="345" width="130" height="30" as="geometry" />
        </mxCell>
        <mxCell id="jyMq_5GXga4smwKC42Ej-34" style="edgeStyle=orthogonalEdgeStyle;rounded=0;orthogonalLoop=1;jettySize=auto;html=1;exitX=0.75;exitY=0;exitDx=0;exitDy=0;entryX=0.75;entryY=1;entryDx=0;entryDy=0;strokeWidth=2;" edge="1" parent="1" source="jyMq_5GXga4smwKC42Ej-23" target="jyMq_5GXga4smwKC42Ej-10">
          <mxGeometry relative="1" as="geometry" />
        </mxCell>
        <mxCell id="jyMq_5GXga4smwKC42Ej-23" value="" style="rounded=0;whiteSpace=wrap;html=1;strokeWidth=2;" vertex="1" parent="1">
          <mxGeometry x="235" y="250" width="290" height="60" as="geometry" />
        </mxCell>
        <mxCell id="jyMq_5GXga4smwKC42Ej-15" value="&lt;font face=&quot;Times New Roman&quot; style=&quot;font-size: 20px;&quot;&gt;&lt;i style=&quot;font-size: 20px;&quot;&gt;&lt;b style=&quot;font-size: 20px;&quot;&gt;TRANSMITTER &amp;amp; STORAGE&lt;/b&gt;&lt;br style=&quot;font-size: 20px;&quot;&gt;&lt;/i&gt;&lt;/font&gt;" style="text;html=1;align=center;verticalAlign=middle;whiteSpace=wrap;rounded=0;fontSize=20;" vertex="1" parent="1">
          <mxGeometry x="250" y="260" width="260" height="40" as="geometry" />
        </mxCell>
        <mxCell id="jyMq_5GXga4smwKC42Ej-26" value="USER INTERFACE" style="text;html=1;align=center;verticalAlign=middle;whiteSpace=wrap;rounded=0;fontStyle=7;fontFamily=Times New Roman;fontSize=20;" vertex="1" parent="1">
          <mxGeometry x="275" y="90" width="210" height="30" as="geometry" />
        </mxCell>
        <mxCell id="jyMq_5GXga4smwKC42Ej-32" value="RECIEVING&amp;nbsp; UNIT" style="text;html=1;align=center;verticalAlign=middle;whiteSpace=wrap;rounded=0;fontFamily=Times New Roman;fontSize=20;fontStyle=7" vertex="1" parent="1">
          <mxGeometry x="210" y="50" width="180" height="30" as="geometry" />
        </mxCell>
        <mxCell id="jyMq_5GXga4smwKC42Ej-31" value="FIELD SENSOR UNIT" style="text;html=1;align=center;verticalAlign=middle;whiteSpace=wrap;rounded=0;fontFamily=Times New Roman;fontSize=20;fontStyle=7" vertex="1" parent="1">
          <mxGeometry x="210" y="210" width="200" height="30" as="geometry" />
        </mxCell>
      </root>
    </mxGraphModel>
  </diagram>
</mxfile>
